<svg xmlns="http://www.w3.org/2000/svg"  viewBox="0 0 100 100" width="200px" height="200px"><path fill="#c7ede6" d="M50,12c-20.987,0-38,17.013-38,38s17.013,38,38,38s38-17.013,38-38S70.987,12,50,12z"/><path fill="#f1bc19" d="M78,13c-0.552,0-1,0.448-1,1s0.448,1,1,1s1-0.448,1-1S78.552,13,78,13z"/><path fill="#f1bc19" d="M84,12c-2.209,0-4,1.791-4,4s1.791,4,4,4s4-1.791,4-4S86.209,12,84,12z"/><path fill="#ee3e54" d="M14,24c-1.105,0-2,0.895-2,2s0.895,2,2,2s2-0.895,2-2S15.105,24,14,24z"/><path fill="#fbcd59" d="M78,75c-1.105,0-2,0.895-2,2s0.895,2,2,2s2-0.895,2-2S79.105,75,78,75z M17,74 c-2.209,0-4,1.791-4,4s1.791,4,4,4s4-1.791,4-4S19.209,74,17,74z"/><path fill="#ee3e54" d="M24,81c-1.105,0-2,0.895-2,2s0.895,2,2,2s2-0.895,2-2S25.105,81,24,81z"/><path fill="#fff" d="M66.483,76.034c-1.371,0-2.483,1.112-2.483,2.483S65.112,81,66.483,81s2.483-1.112,2.483-2.483 S67.854,76.034,66.483,76.034z M16,47c-0.552,0-1,0.448-1,1s0.448,1,1,1c0.552,0,1-0.448,1-1S16.552,47,16,47z"/><path fill="#f1bc19" d="M86,30c-0.552,0-1,0.448-1,1s0.448,1,1,1s1-0.448,1-1S86.552,30,86,30z"/><path fill="#fff" d="M80,64c-1.105,0-2,0.895-2,2s0.895,2,2,2s2-0.895,2-2S81.105,64,80,64z"/><path fill="#fdfcef" d="M67.267,61.303l-9.02-22.96c2.44-0.241,5.877-1.367,7.653-2.187l-2.733-9.84	c0,0-4.92,2.187-13.667,2.187s-13.667-2.187-13.667-2.187l-2.733,9.84c1.777,0.82,5.213,1.945,7.653,2.187l-9.02,22.96h10.113	l8.2-21.32l4.373,10.933h-8.61l3.69,10.387H67.267z"/><path fill="none" stroke="#472b29" stroke-linecap="round" stroke-linejoin="round" stroke-miterlimit="10" stroke-width="1.4" d="M67.267,61.303l-9.02-22.96c2.44-0.241,5.877-1.367,7.653-2.187l-2.733-9.84c0,0-4.92,2.187-13.667,2.187	s-13.667-2.187-13.667-2.187l-2.733,9.84c1.777,0.82,5.213,1.945,7.653,2.187l-9.02,22.96h10.113l8.2-21.32l4.373,10.933h-8.61	l3.69,10.387H67.267z"/><path fill="none" stroke="#472b29" stroke-linecap="round" stroke-linejoin="round" stroke-miterlimit="10" stroke-width=".5" d="M56.279,30.286c-4.439,0.607-11.264,0.889-18.832-1.136"/><path fill="none" stroke="#472b29" stroke-linecap="round" stroke-linejoin="round" stroke-miterlimit="10" stroke-width=".5" d="M63.167,34.814l-1.618-5.606c0,0-1.117,0.355-3.069,0.722"/><polygon fill="#472b29" points="32.39,36.375 36.517,48.729 40.89,38.479"/><polygon fill="#472b29" points="66.577,36.527 62.204,48.553 57.831,38.303"/><polygon fill="#472b29" points="67.907,61.575 62.62,74.286 47.313,74.286 46.493,72.236 45.537,74.559 35.423,74.559 31.089,61.69 41.573,61.849 45.81,52.009 49.364,61.303"/><polygon fill="#472b29" points="50.047,39.982 54.42,50.916 45.673,50.916"/><line x1="57.07" x2="56.06" y1="42.032" y2="39.436" fill="none" stroke="#472b29" stroke-linecap="round" stroke-linejoin="round" stroke-miterlimit="10" stroke-width=".5"/><line x1="63.714" x2="58.027" y1="59.116" y2="44.492" fill="none" stroke="#472b29" stroke-linecap="round" stroke-linejoin="round" stroke-miterlimit="10" stroke-width=".5"/></svg>